<svg width="95" height="130" viewBox="0 0 95 130" fill="none" xmlns="http://www.w3.org/2000/svg">
<path fill-rule="evenodd" clip-rule="evenodd" d="M29.9313 56.8068C26.8016 55.0997 23.1838 54.5864 19.1225 55.7747C6.55909 59.4511 1.47678 69.2892 0.790594 80.9516C-0.210793 97.9808 8.30238 118.937 15.9118 129.353C16.2716 129.847 16.9635 129.953 17.4544 129.593C17.9481 129.233 18.0568 128.541 17.697 128.048C10.3107 117.939 2.02633 97.6071 2.99704 81.08C3.62744 70.3716 8.20482 61.2726 19.7445 57.8974C23.1782 56.8905 26.2298 57.3339 28.8797 58.7705C27.9676 60.5166 27.1168 62.2656 26.3302 64.0145C24.16 68.8429 20.916 82.2487 22.1266 92.1064C22.9969 99.1774 26.1517 104.419 33.047 104.235C36.8796 104.131 39.6522 101.744 41.3481 97.9446C43.6829 92.7229 43.945 84.7229 42.3021 77.0577C40.9353 70.6756 38.2576 64.5362 34.4585 60.4163C33.6216 59.5125 32.7345 58.7007 31.7945 58.0034C44.9046 34.0259 69.2587 11.6049 94.2683 2.14886C94.8374 1.93129 95.1274 1.29535 94.9098 0.723528C94.695 0.151705 94.0562 -0.135618 93.4872 0.0791646C68.0704 9.69137 43.312 32.4388 29.9313 56.8068ZM30.7373 59.9867C29.8838 61.6296 29.0861 63.2753 28.3469 64.9211C26.2688 69.5487 23.1614 82.391 24.3218 91.8358C25.0331 97.6321 27.3372 102.176 32.9885 102.025C35.9564 101.945 38.0148 99.9836 39.3314 97.0436C40.7763 93.8079 41.3287 89.4258 41.0971 84.7536C40.7457 77.6602 38.5784 69.9002 34.8071 64.4079C33.6133 62.6673 32.2548 61.1582 30.7373 59.9867Z" fill="black"/>
<path fill-rule="evenodd" clip-rule="evenodd" d="M74.5061 38.3322C76.732 25.3337 85.2285 11.4928 94.386 1.90846C94.8072 1.46774 94.7905 0.767581 94.3498 0.346385C93.9091 -0.0748115 93.2089 -0.0608319 92.7877 0.37989C83.3429 10.2627 74.6233 24.5582 72.3276 37.9584C72.2244 38.5581 72.6289 39.13 73.2314 39.2332C73.8311 39.3364 74.4029 38.9319 74.5061 38.3322Z" fill="black"/>
<path fill-rule="evenodd" clip-rule="evenodd" d="M92.6453 0.146652C83.1112 5.59152 68.4865 6.34468 57.8254 3.58598C57.2341 3.43256 56.6288 3.78684 56.4782 4.37819C56.3247 4.96954 56.6789 5.572 57.2703 5.72541C68.439 8.61521 83.7527 7.77006 93.7414 2.06578C94.2714 1.76453 94.4557 1.08667 94.1544 0.556683C93.8504 0.0267009 93.1753 -0.15739 92.6453 0.146652Z" fill="black"/>
</svg>
